<?xml version="1.0" encoding="UTF-8" standalone="no"?>
<svg
   xmlns:dc="http://purl.org/dc/elements/1.1/"
   xmlns:cc="http://creativecommons.org/ns#"
   xmlns:rdf="http://www.w3.org/1999/02/22-rdf-syntax-ns#"
   xmlns:svg="http://www.w3.org/2000/svg"
   xmlns="http://www.w3.org/2000/svg"
   id="svg10"
   version="1.1"
   style="overflow:visible"
   viewBox="-240 -126 480 252"
   height="1008px"
   width="1920px">
  <metadata
     id="metadata16">
    <rdf:RDF>
      <cc:Work
         rdf:about="">
        <dc:format>image/svg+xml</dc:format>
        <dc:type
           rdf:resource="http://purl.org/dc/dcmitype/StillImage" />
      </cc:Work>
    </rdf:RDF>
  </metadata>
  <defs
     id="defs14" />
  <rect
     id="rect2"
     fill-opacity="0"
     fill="rgb(0,0,0)"
     height="252"
     width="480"
     y="-126"
     x="-240" />
  <svg
     id="svg8"
     version="1.1"
     y="-250"
     x="-250"
     viewBox="-250 -250 500 500"
     height="500"
     width="500"
     style="overflow:visible">
    <g
       style="fill:#ffffff;stroke-linejoin:round"
       id="g6">
      <path
         style="fill:#fce2c4;fill-opacity:1;stroke:#444444;stroke-width:6;stroke-linecap:butt;stroke-linejoin:round;stroke-opacity:1"
         id="path4"
         d="m 82.82,42.565499 c 7.7551,-21.33915 2.1572,-36.52645 -10.547,-33.79295 -8.6271,1.8563 -6.6834,18.4697 -14.7993,29.84425 -10.81335,15.1552 -39.3922,23.11395 -48.8816,-1.905725 -6.78045,-17.87705 8.9332,-30.0991 19.5406,-34.02885 11.8289,-4.382225 22.8682,2.7217 31.02125,5.68335 12.1166,4.40161 24.4264,-7.75205 11.1351,-17.95005 -11.4635,-8.7956 -20.2964,-15.0899 -36.6705,-14.4596 -15.84725,0.6101 -27.3048,9.87995 -27.3048,9.87995 0,0 17.2966,-51.7545 18.84365,-68.9865 1.476335,-16.44445 -22.9687,-20.089754 -25.3935,-3.891245 -5.022,33.5482 -17.44395,66.802 -17.44395,66.802 0,0 -6.06465,-47.75305 -19.0141,-59.1095 -8.1802,-7.1736 -23.28505,-0.73528 -18.59695,14.81065 4.688135,15.54605 16.9288,50.0745 19.41555,66.5625 -6.9861,-7.7214 -23.1813,-19.2935 -34.13525,-25.5614 -11.4592,-6.557 -23.22605,6.5748 -11.5716,16.126999 21.2625,17.42725 34.67395,39.0884 34.67395,39.0884 -5.7446,76.680002 99.527,93.990002 129.7285,10.8869 z" />
    </g>
  </svg>
</svg>
